<mxfile host="app.diagrams.net" modified="2023-09-30T17:04:07.473Z" agent="Mozilla/5.0 (Windows NT 10.0; Win64; x64) AppleWebKit/537.36 (KHTML, like Gecko) Chrome/117.0.0.0 Safari/537.36" etag="lyOHfAOmchmD8-ayGLyL" version="21.7.5" type="device">
  <diagram name="Page-1" id="5n4Q_kPgomkOV22j6i_L">
    <mxGraphModel dx="580" dy="613" grid="1" gridSize="10" guides="1" tooltips="1" connect="1" arrows="1" fold="1" page="1" pageScale="1" pageWidth="850" pageHeight="1100" math="0" shadow="0">
      <root>
        <mxCell id="0" />
        <mxCell id="1" parent="0" />
        <mxCell id="ZP-lOoIfoTtW22RDW0wM-35" value="&lt;font face=&quot;Times New Roman&quot;&gt;User&lt;/font&gt;" style="rounded=0;whiteSpace=wrap;html=1;strokeColor=#D0CEE2;fontColor=#1A1A1A;fillColor=#FAD9D5;" vertex="1" parent="1">
          <mxGeometry x="90" y="80" width="90" height="50" as="geometry" />
        </mxCell>
        <mxCell id="ZP-lOoIfoTtW22RDW0wM-36" value="&lt;font face=&quot;Times New Roman&quot;&gt;Leaf Health Analysis&lt;/font&gt;" style="ellipse;whiteSpace=wrap;html=1;strokeColor=#D0CEE2;fontColor=#1A1A1A;fillColor=#FAD9D5;" vertex="1" parent="1">
          <mxGeometry x="260" y="65" width="120" height="80" as="geometry" />
        </mxCell>
        <mxCell id="ZP-lOoIfoTtW22RDW0wM-37" value="&lt;font face=&quot;Times New Roman&quot;&gt;Disease Classification&lt;/font&gt;" style="rounded=0;whiteSpace=wrap;html=1;strokeColor=#D0CEE2;fontColor=#1A1A1A;fillColor=#FAD9D5;" vertex="1" parent="1">
          <mxGeometry x="460" y="80" width="130" height="50" as="geometry" />
        </mxCell>
        <mxCell id="ZP-lOoIfoTtW22RDW0wM-39" value="" style="shape=flexArrow;endArrow=classic;html=1;rounded=0;strokeColor=#09555B;fontColor=#1A1A1A;exitX=1;exitY=0.5;exitDx=0;exitDy=0;entryX=0;entryY=0.5;entryDx=0;entryDy=0;" edge="1" parent="1" source="ZP-lOoIfoTtW22RDW0wM-35" target="ZP-lOoIfoTtW22RDW0wM-36">
          <mxGeometry width="50" height="50" relative="1" as="geometry">
            <mxPoint x="360" y="170" as="sourcePoint" />
            <mxPoint x="410" y="120" as="targetPoint" />
          </mxGeometry>
        </mxCell>
        <mxCell id="ZP-lOoIfoTtW22RDW0wM-40" value="" style="shape=flexArrow;endArrow=classic;html=1;rounded=0;strokeColor=#09555B;fontColor=#1A1A1A;entryX=0;entryY=0.5;entryDx=0;entryDy=0;exitX=1;exitY=0.5;exitDx=0;exitDy=0;" edge="1" parent="1" source="ZP-lOoIfoTtW22RDW0wM-36" target="ZP-lOoIfoTtW22RDW0wM-37">
          <mxGeometry width="50" height="50" relative="1" as="geometry">
            <mxPoint x="360" y="170" as="sourcePoint" />
            <mxPoint x="410" y="120" as="targetPoint" />
          </mxGeometry>
        </mxCell>
        <mxCell id="ZP-lOoIfoTtW22RDW0wM-41" value="&lt;font face=&quot;Times New Roman&quot;&gt;Image for Test&lt;/font&gt;" style="rounded=1;whiteSpace=wrap;html=1;strokeColor=#D0CEE2;fontColor=#1A1A1A;fillColor=#FAD9D5;" vertex="1" parent="1">
          <mxGeometry x="60" y="250" width="120" height="50" as="geometry" />
        </mxCell>
        <mxCell id="ZP-lOoIfoTtW22RDW0wM-42" value="&lt;font face=&quot;Times New Roman&quot;&gt;Leaf Disease Analysis&lt;/font&gt;" style="ellipse;whiteSpace=wrap;html=1;strokeColor=#D0CEE2;fontColor=#1A1A1A;fillColor=#FAD9D5;" vertex="1" parent="1">
          <mxGeometry x="240" y="235" width="120" height="80" as="geometry" />
        </mxCell>
        <mxCell id="ZP-lOoIfoTtW22RDW0wM-44" value="&lt;font face=&quot;Times New Roman&quot;&gt;Feature Extraction&lt;/font&gt;" style="rounded=1;whiteSpace=wrap;html=1;strokeColor=#D0CEE2;fontColor=#1A1A1A;fillColor=#FAD9D5;" vertex="1" parent="1">
          <mxGeometry x="410" y="245" width="120" height="60" as="geometry" />
        </mxCell>
        <mxCell id="ZP-lOoIfoTtW22RDW0wM-45" value="&lt;font face=&quot;Times New Roman&quot;&gt;Prediction Of Leaf Disease&lt;/font&gt;" style="rounded=1;whiteSpace=wrap;html=1;strokeColor=#D0CEE2;fontColor=#1A1A1A;fillColor=#FAD9D5;" vertex="1" parent="1">
          <mxGeometry x="610" y="245" width="120" height="60" as="geometry" />
        </mxCell>
        <mxCell id="ZP-lOoIfoTtW22RDW0wM-46" value="Training Data" style="rounded=1;whiteSpace=wrap;html=1;strokeColor=#D0CEE2;fontColor=#1A1A1A;fillColor=#FAD9D5;" vertex="1" parent="1">
          <mxGeometry x="240" y="370" width="120" height="50" as="geometry" />
        </mxCell>
        <mxCell id="ZP-lOoIfoTtW22RDW0wM-47" value="" style="shape=flexArrow;endArrow=classic;html=1;rounded=0;strokeColor=#09555B;fontColor=#1A1A1A;exitX=1;exitY=0.5;exitDx=0;exitDy=0;entryX=0;entryY=0.5;entryDx=0;entryDy=0;" edge="1" parent="1" source="ZP-lOoIfoTtW22RDW0wM-41" target="ZP-lOoIfoTtW22RDW0wM-42">
          <mxGeometry width="50" height="50" relative="1" as="geometry">
            <mxPoint x="280" y="270" as="sourcePoint" />
            <mxPoint x="330" y="220" as="targetPoint" />
          </mxGeometry>
        </mxCell>
        <mxCell id="ZP-lOoIfoTtW22RDW0wM-48" value="" style="shape=flexArrow;endArrow=classic;html=1;rounded=0;strokeColor=#09555B;fontColor=#1A1A1A;exitX=1;exitY=0.5;exitDx=0;exitDy=0;entryX=0;entryY=0.5;entryDx=0;entryDy=0;" edge="1" parent="1" source="ZP-lOoIfoTtW22RDW0wM-42" target="ZP-lOoIfoTtW22RDW0wM-44">
          <mxGeometry width="50" height="50" relative="1" as="geometry">
            <mxPoint x="280" y="270" as="sourcePoint" />
            <mxPoint x="330" y="220" as="targetPoint" />
          </mxGeometry>
        </mxCell>
        <mxCell id="ZP-lOoIfoTtW22RDW0wM-49" value="" style="shape=flexArrow;endArrow=classic;html=1;rounded=0;strokeColor=#09555B;fontColor=#1A1A1A;exitX=1;exitY=0.5;exitDx=0;exitDy=0;entryX=0;entryY=0.5;entryDx=0;entryDy=0;" edge="1" parent="1" source="ZP-lOoIfoTtW22RDW0wM-44" target="ZP-lOoIfoTtW22RDW0wM-45">
          <mxGeometry width="50" height="50" relative="1" as="geometry">
            <mxPoint x="440" y="270" as="sourcePoint" />
            <mxPoint x="490" y="220" as="targetPoint" />
          </mxGeometry>
        </mxCell>
        <mxCell id="ZP-lOoIfoTtW22RDW0wM-50" value="" style="shape=flexArrow;endArrow=classic;html=1;rounded=0;strokeColor=#09555B;fontColor=#1A1A1A;exitX=0.5;exitY=0;exitDx=0;exitDy=0;entryX=0.5;entryY=1;entryDx=0;entryDy=0;" edge="1" parent="1" source="ZP-lOoIfoTtW22RDW0wM-46" target="ZP-lOoIfoTtW22RDW0wM-42">
          <mxGeometry width="50" height="50" relative="1" as="geometry">
            <mxPoint x="340" y="270" as="sourcePoint" />
            <mxPoint x="390" y="220" as="targetPoint" />
          </mxGeometry>
        </mxCell>
        <mxCell id="ZP-lOoIfoTtW22RDW0wM-51" value="&lt;font face=&quot;Times New Roman&quot;&gt;Testing Data&lt;/font&gt;" style="rounded=0;whiteSpace=wrap;html=1;strokeColor=#D0CEE2;fontColor=#1A1A1A;fillColor=#FAD9D5;" vertex="1" parent="1">
          <mxGeometry x="60" y="470" width="120" height="50" as="geometry" />
        </mxCell>
        <mxCell id="ZP-lOoIfoTtW22RDW0wM-52" value="&lt;font face=&quot;Times New Roman&quot;&gt;Training Data&lt;/font&gt;" style="rounded=0;whiteSpace=wrap;html=1;strokeColor=#D0CEE2;fontColor=#1A1A1A;fillColor=#FAD9D5;" vertex="1" parent="1">
          <mxGeometry x="60" y="570" width="120" height="50" as="geometry" />
        </mxCell>
        <mxCell id="ZP-lOoIfoTtW22RDW0wM-53" value="&lt;font face=&quot;Times New Roman&quot;&gt;CNN Model&lt;/font&gt;" style="ellipse;whiteSpace=wrap;html=1;strokeColor=#D0CEE2;fontColor=#1A1A1A;fillColor=#FAD9D5;" vertex="1" parent="1">
          <mxGeometry x="250" y="500" width="120" height="80" as="geometry" />
        </mxCell>
        <mxCell id="ZP-lOoIfoTtW22RDW0wM-54" value="&lt;font face=&quot;Times New Roman&quot;&gt;Leaf Disease Analysis&lt;/font&gt;" style="ellipse;whiteSpace=wrap;html=1;strokeColor=#D0CEE2;fontColor=#1A1A1A;fillColor=#FAD9D5;" vertex="1" parent="1">
          <mxGeometry x="440" y="500" width="120" height="80" as="geometry" />
        </mxCell>
        <mxCell id="ZP-lOoIfoTtW22RDW0wM-55" value="" style="shape=flexArrow;endArrow=classic;html=1;rounded=0;strokeColor=#09555B;fontColor=#1A1A1A;exitX=1;exitY=0.5;exitDx=0;exitDy=0;entryX=0;entryY=0.5;entryDx=0;entryDy=0;" edge="1" parent="1" source="ZP-lOoIfoTtW22RDW0wM-51" target="ZP-lOoIfoTtW22RDW0wM-53">
          <mxGeometry width="50" height="50" relative="1" as="geometry">
            <mxPoint x="240" y="490" as="sourcePoint" />
            <mxPoint x="290" y="440" as="targetPoint" />
          </mxGeometry>
        </mxCell>
        <mxCell id="ZP-lOoIfoTtW22RDW0wM-58" value="" style="shape=flexArrow;endArrow=classic;html=1;rounded=0;strokeColor=#09555B;fontColor=#1A1A1A;exitX=1;exitY=0.5;exitDx=0;exitDy=0;entryX=0;entryY=0.625;entryDx=0;entryDy=0;entryPerimeter=0;" edge="1" parent="1" source="ZP-lOoIfoTtW22RDW0wM-52" target="ZP-lOoIfoTtW22RDW0wM-53">
          <mxGeometry width="50" height="50" relative="1" as="geometry">
            <mxPoint x="240" y="490" as="sourcePoint" />
            <mxPoint x="240" y="540" as="targetPoint" />
          </mxGeometry>
        </mxCell>
        <mxCell id="ZP-lOoIfoTtW22RDW0wM-59" value="" style="shape=flexArrow;endArrow=classic;html=1;rounded=0;strokeColor=#09555B;fontColor=#1A1A1A;exitX=1;exitY=0.5;exitDx=0;exitDy=0;entryX=0;entryY=0.5;entryDx=0;entryDy=0;" edge="1" parent="1" source="ZP-lOoIfoTtW22RDW0wM-53" target="ZP-lOoIfoTtW22RDW0wM-54">
          <mxGeometry width="50" height="50" relative="1" as="geometry">
            <mxPoint x="240" y="490" as="sourcePoint" />
            <mxPoint x="290" y="440" as="targetPoint" />
          </mxGeometry>
        </mxCell>
      </root>
    </mxGraphModel>
  </diagram>
</mxfile>
